<svg version="1.1" xmlns="http://www.w3.org/2000/svg" viewBox="0 0 602.5696676436935 437.71762145841217" width="1807.7090029310805" height="1313.1528643752365">
  <!-- svg-source:excalidraw -->
  
  <defs>
    <style>
      @font-face {
        font-family: "Virgil";
        src: url("https://excalidraw.com/Virgil.woff2");
      }
      @font-face {
        font-family: "Cascadia";
        src: url("https://excalidraw.com/Cascadia.woff2");
      }
    </style>
  </defs>
  <rect x="0" y="0" width="602.5696676436935" height="437.71762145841217" fill="#ffffff"></rect><g stroke-linecap="round" transform="translate(13.592778044231409 49.445835331736134) rotate(0 38.32296580513599 32.93379873878871)"><path d="M0.12 -1.24 C23.72 -1.16, 47.85 -0.49, 75.62 0.04 M-0.75 -0.89 C23.03 -1.05, 45.19 -0.55, 76.92 0.56 M77.69 1.53 C75.73 14.66, 76.99 26.42, 77.09 65.67 M77.3 -0.1 C77.09 14.73, 76.08 29.31, 75.89 66.42 M78.1 65.51 C60.28 64.64, 45.97 66.65, 0.76 66.29 M76.09 66.03 C48.68 65.45, 21.77 66.15, -0.28 66.32 M0.03 66.16 C0.01 48.9, -0.91 27.54, 1.36 -1.66 M-0.41 65.87 C1.46 46.52, 1.24 28.66, 0.31 -0.26" stroke="#087f5b" stroke-width="1" fill="none"></path></g><g stroke-linecap="round" transform="translate(90.8375059952084 50.04463167244137) rotate(0 38.32296580513605 32.93379873878871)"><path d="M1.26 -0.7 C25.92 -1.28, 54 -0.45, 76.5 1.55 M-0.19 -0.06 C27.67 -0.33, 55.83 -0.36, 77.43 -0.48 M76.42 -1.85 C76.96 14.78, 77.11 32.91, 75.95 67.13 M77.54 -0.85 C75.87 25.08, 77.81 49.97, 77.24 66.5 M75.17 67.69 C59.41 67.73, 39.06 66.3, 0.86 66.67 M75.99 66.6 C49.79 65.12, 23.52 66.83, 0.67 65.67 M-1.29 64.89 C-1.05 50.63, 1 34.14, 0.47 -1.87 M-0.1 65.89 C-0.08 41.77, -1.14 18.85, 0.34 -0.27" stroke="#087f5b" stroke-width="1" fill="none"></path></g><g stroke-linecap="round" transform="translate(167.4834376054805 48.8470389910309) rotate(0 38.32296580513594 32.93379873878871)"><path d="M-0.13 -0.82 C16.65 2.42, 32.57 1.97, 78.23 0.61 M-0.98 0.1 C21.93 0.64, 42.53 1.29, 76.08 0.21 M78.09 1.39 C75.93 23.81, 77.02 48.51, 77.46 64.33 M75.91 -0.94 C75.33 22.13, 76.88 42.51, 75.95 66.3 M75.88 65.82 C54.63 64.14, 30.5 63.62, 1.13 66.54 M76.79 65.25 C51.31 65.82, 28.15 65.61, -0.8 65.06 M1.43 66.43 C-0.44 43.87, -0.63 17.86, 1.45 -1.81 M0.89 65.76 C0.36 44.5, 0 23.8, 0.96 0.7" stroke="#087f5b" stroke-width="1" fill="none"></path></g><g stroke-linecap="round" transform="translate(243.53057287504726 48.8470389910309) rotate(0 38.32296580513594 32.93379873878871)"><path d="M-0.98 -0.76 C26.27 1.78, 51.29 0.96, 74.77 1.13 M0.02 0.14 C24.95 -0.84, 51.06 0.42, 76.37 -0.8 M78.33 1.43 C77.56 13.44, 78.21 27.69, 75.07 67.32 M77.38 0.89 C76.64 14.76, 76.17 28.21, 76.16 66.82 M77.65 66.81 C48.46 65.86, 18.29 67.09, -1.86 67.34 M77.6 66.22 C48.79 66.58, 20.9 66.14, 0.61 65.93 M-0.56 65.33 C-0.49 49.5, 0.59 30.4, 0.96 1.62 M-0.85 64.87 C0.45 49.7, -1.12 32.49, 0.88 -0.4" stroke="#087f5b" stroke-width="1" fill="none"></path></g><g stroke-linecap="round" transform="translate(320.17650448531913 48.248242650325665) rotate(0 38.32296580513594 32.93379873878871)"><path d="M0.56 -1.01 C17.54 -1.75, 31.07 0.91, 74.84 0.31 M-0.11 0.95 C29.34 -0.09, 59.35 0.27, 77.35 0.8 M76.82 0.06 C75.36 20.52, 75.11 39.96, 77.87 64.1 M76.45 0.46 C76.87 21.93, 77.89 43.88, 76.19 65.07 M75.63 66.29 C57.97 63.77, 40.11 67.28, -0.8 66.69 M77.36 66.81 C54.58 65.95, 35.09 64.71, 0.7 65.59 M0.43 66.63 C-0.08 47.65, 2.29 28.12, 0.82 -0.5 M0.59 65.25 C-0.92 44.05, 0.4 20.72, -0.5 -0.06" stroke="#087f5b" stroke-width="1" fill="none"></path></g><g stroke-linecap="round" transform="translate(11.19759268141047 118.00801634248722) rotate(0 38.32296580513599 32.93379873878871)"><path d="M0.49 1.24 C21.94 -0.32, 38.93 1.43, 76.98 -0.16 M-0.75 0.63 C28.52 -1.19, 56.85 -0.12, 76.85 0.59 M78.22 0.33 C77.82 21.49, 77.99 46.61, 76.48 66.66 M76.33 -0.13 C77.35 24.41, 75.91 50.91, 76.71 66.1 M77.49 65.6 C50.1 67.25, 21.52 63.86, 1.28 65.28 M76.25 65.46 C50.31 66.3, 22.17 66.75, 0.73 65.35 M1.76 65.97 C0.35 45.58, 1.13 29.64, 1.37 -0.88 M0.99 66.63 C0.28 38.99, 0.15 14.71, -0.46 -0.07" stroke="#087f5b" stroke-width="1" fill="none"></path></g><g stroke-linecap="round" transform="translate(88.44232063238724 118.60681268319246) rotate(0 38.32296580513594 32.93379873878871)"><path d="M1.24 1.55 C22.9 -2.03, 48.42 0.15, 76.49 1.36 M0.63 0.33 C15.17 1.04, 31.91 0.78, 77.23 0.47 M76.98 1.18 C75.67 21.08, 77.96 39.31, 77.44 67.54 M76.52 0.51 C75.5 20.71, 76.74 43.32, 76.87 66.37 M76.37 66.2 C47.9 64.83, 14.26 67.47, -0.59 66.89 M76.24 66.45 C53.37 64.93, 30.86 66.3, -0.52 65.74 M0.1 66.09 C-1.6 48.44, 1.38 30.38, -0.88 1.86 M0.76 65.51 C-0.42 52.03, 1.18 38.71, -0.07 -0.98" stroke="#087f5b" stroke-width="1" fill="none"></path></g><g stroke-linecap="round" transform="translate(165.08825224265956 117.40922000178199) rotate(0 38.32296580513594 32.93379873878871)"><path d="M1.55 -0.86 C15.71 0.42, 35.44 -0.63, 78 -1.91 M0.33 -0.52 C30.14 0.06, 59.55 0.1, 77.11 0 M77.83 -1.34 C78.51 24.42, 77 47.74, 78.32 66.44 M77.16 -0.86 C75.52 17.3, 76.5 34.06, 77.15 66.81 M76.98 67.37 C53.51 63.88, 34.37 65.18, 1.02 65.86 M77.23 65.57 C45.72 65.71, 16.81 65.03, -0.13 65.67 M0.22 64.49 C0.42 45.49, 0.79 21.04, 1.86 -1.95 M-0.36 64.87 C-1.14 52.52, -1.11 37.9, -0.98 -0.98" stroke="#087f5b" stroke-width="1" fill="none"></path></g><g stroke-linecap="round" transform="translate(241.13538751222632 117.40922000178199) rotate(0 38.32296580513594 32.93379873878871)"><path d="M-0.86 -1.84 C25.76 -0.26, 49.58 0.76, 74.74 1.74 M-0.52 0.46 C17.78 -0.05, 35.07 0.21, 76.64 0.56 M75.3 1.34 C77.7 24.77, 77.55 51.55, 77.21 65 M75.79 -0.92 C76.94 17.72, 76.79 35.81, 77.59 65.71 M78.15 64.51 C48.53 67.27, 23.58 67.02, -0.01 67.77 M76.35 65.23 C56.83 67.05, 36.17 66.19, -0.2 66.2 M-1.38 66.86 C1.57 41.68, -0.91 16.62, -1.95 -1.76 M-1 65.38 C0.09 39.11, -0.57 12.29, -0.98 -0.36" stroke="#087f5b" stroke-width="1" fill="none"></path></g><g stroke-linecap="round" transform="translate(317.78131912249773 116.81042366107675) rotate(0 38.32296580513594 32.93379873878871)"><path d="M-1.84 0.89 C28.07 0.17, 56.82 -1.58, 78.39 -1.5 M0.46 0.54 C28.06 0.99, 56.19 0.4, 77.21 0.79 M77.99 0.94 C76.87 21.66, 78.71 42.29, 75.78 65.23 M75.73 0.38 C77.05 19.16, 77.49 38.81, 76.49 66.29 M75.29 63.99 C55.97 65.86, 33.76 66.44, 1.9 65.08 M76.01 66.02 C57.5 65.12, 36.77 65.44, 0.34 66.75 M1 67.47 C1.3 44.91, 1.79 23.75, -1.76 1.99 M-0.49 66.46 C-0.22 41.01, -0.74 15.31, -0.36 -0.5" stroke="#087f5b" stroke-width="1" fill="none"></path></g><g stroke-linecap="round" transform="translate(11.19759268141047 185.07320650147528) rotate(0 38.32296580513599 32.93379873878871)"><path d="M0.32 -1.52 C29.58 0.18, 59.13 0.97, 77.86 0.63 M0.13 -0.3 C17.5 -0.54, 33.74 1.1, 76.13 0.31 M77.05 -1.56 C76.01 18.38, 75.88 40.95, 75.75 64.45 M77.35 0.58 C76.07 15.59, 76.99 32, 76 65.39 M75.26 65.23 C49.33 64.5, 27.69 67.78, 0.99 66.35 M77.36 66.63 C52.73 65.69, 30.59 66.71, -0.45 65.59 M0.13 67.79 C-1.6 41.77, -0.58 18.65, -1.2 0.3 M0.89 65.45 C0.53 46.13, 0.82 24.44, -0.6 -0.38" stroke="#087f5b" stroke-width="1" fill="none"></path></g><g stroke-linecap="round" transform="translate(88.44232063238769 185.6720028421804) rotate(0 38.32296580513594 32.93379873878871)"><path d="M-1.52 -0.63 C21.9 -1.41, 43.7 1.09, 77.28 -1.53 M-0.3 0.38 C24.8 -0.61, 52.23 -0.62, 76.95 -0.01 M75.09 -0.64 C75.52 19.07, 78.39 38.81, 75.23 64.73 M77.22 -0.75 C75.92 21.65, 76.3 42.3, 76.17 66.17 M76 63.87 C48.67 67.02, 25.48 66.33, 0.49 65.91 M77.41 65.1 C49.37 66.67, 23.15 65.96, -0.28 66.35 M1.92 64.61 C-1.23 42.39, -1.45 18.18, 0.3 0.18 M-0.41 65.79 C0.28 52.32, -1.06 37.74, -0.38 0.74" stroke="#087f5b" stroke-width="1" fill="none"></path></g><g stroke-linecap="round" transform="translate(165.08825224265956 184.47441016076993) rotate(0 38.32296580513594 32.93379873878871)"><path d="M-0.63 0.91 C28.98 2.28, 61.74 1.21, 75.11 0.73 M0.38 -0.99 C18 0.89, 36.49 0.54, 76.64 0.01 M76 -1.31 C76 23.13, 75.89 41.71, 75.51 66.39 M75.9 -0.43 C77.28 16.74, 76.46 33.09, 76.95 66.32 M74.65 64.38 C54.13 67.42, 29.24 66.11, 0.04 66.97 M75.88 65.82 C55.12 67.41, 32.62 66.17, 0.48 66.4 M-1.25 64.68 C-0.27 44.24, -1.25 25.72, 0.18 -1.82 M-0.07 66.48 C-0.37 42.02, -1.18 19.25, 0.74 0.07" stroke="#087f5b" stroke-width="1" fill="none"></path></g><g stroke-linecap="round" transform="translate(241.13538751222632 184.47441016076993) rotate(0 38.32296580513594 32.93379873878871)"><path d="M0.91 -1.28 C25.94 1.46, 49.1 -1.29, 77.37 -1.17 M-0.99 -0.51 C24.65 -0.81, 48.3 -0.3, 76.66 0.27 M75.34 -0.78 C77.69 20.21, 74.71 41.07, 77.17 64.96 M76.21 0.18 C76.97 23.74, 76.55 49.07, 77.1 66.02 M75.16 67.55 C60.76 66.09, 41.76 65.15, 1.11 65.55 M76.59 66.13 C49.14 64.83, 19.44 65.76, 0.53 65.94 M-1.19 65.64 C-2.03 44.49, -0.34 25.7, -1.82 1.02 M0.62 66.09 C-0.45 39.66, -0.1 15.39, 0.07 -0.89" stroke="#087f5b" stroke-width="1" fill="none"></path></g><g stroke-linecap="round" transform="translate(317.7813191224982 183.8756138200648) rotate(0 38.32296580513594 32.93379873878871)"><path d="M-1.28 1.7 C18.38 0.28, 32.8 0.38, 75.47 0.26 M-0.51 0.66 C20.16 1.06, 41.35 0.77, 76.92 0.2 M75.87 1.56 C75.54 13.22, 75.3 29.79, 75.74 67.27 M76.82 -0.05 C75.51 23.08, 76.46 47.57, 76.8 65.18 M78.32 67.66 C57.1 65.78, 35.62 66.4, -0.32 67.29 M76.91 66.83 C47.38 65.55, 19.5 66.36, 0.07 65.93 M-0.23 64.47 C-0.79 40.08, 0.59 11.89, 1.02 1.77 M0.22 65.15 C-0.55 48.46, 0.79 31.88, -0.89 -0.57" stroke="#087f5b" stroke-width="1" fill="none"></path></g><g stroke-linecap="round" transform="translate(10 252.13839666046306) rotate(0 38.32296580513599 32.93379873878871)"><path d="M1.18 1.13 C19.41 -2.13, 40.86 -0.93, 75.99 -0.67 M-0.03 0.54 C28.29 0.45, 54.77 -0.02, 77.19 -0.75 M74.97 -1.33 C75.27 19.88, 74.43 38.76, 76.96 66.8 M75.81 -0.65 C77.54 23.33, 76.52 48.5, 76.05 65.29 M77.16 66.15 C54.27 66.95, 30.36 66.4, 0.34 67.6 M76.53 66.18 C59.95 66.72, 44.02 67.32, -0.03 65.86 M-0.56 64.26 C0.83 44.31, 2.46 26.01, 0.36 0.89 M-0.06 66.4 C0.5 49.98, 0.48 34.38, -0.57 0.71" stroke="#087f5b" stroke-width="1" fill="none"></path></g><g stroke-linecap="round" transform="translate(87.244727950977 252.73719300116818) rotate(0 38.32296580513594 32.93379873878871)"><path d="M1.13 -0.23 C22.58 1.11, 47.84 -1.11, 75.97 1.14 M0.54 0.94 C25.43 0.1, 50.62 0.57, 75.9 -0.1 M75.32 -0.99 C77.49 14.07, 77.29 32.12, 77.58 67.1 M75.99 0.43 C76.15 23.77, 77.5 48.12, 76.07 65.97 M76.93 67.25 C49.01 67.3, 19.39 66.4, 1.73 64.08 M76.96 65.32 C54.57 65.44, 32.87 65.74, 0 66.01 M-1.61 66.2 C-1.13 53.03, 1.26 36.61, 0.89 -1.22 M0.53 66.82 C-0.06 42.44, 0.07 16.56, 0.71 0.35" stroke="#087f5b" stroke-width="1" fill="none"></path></g><g stroke-linecap="round" transform="translate(163.8906595612491 251.5396003197577) rotate(0 38.32296580513605 32.93379873878871)"><path d="M-0.23 -1.48 C31.08 -0.72, 58.37 -1.11, 77.78 0.7 M0.94 -0.24 C16.19 -1.12, 32.77 -1.16, 76.54 -0.59 M75.66 0.8 C74.26 20.76, 76.41 41.25, 77.88 67.26 M77.08 -0.48 C75.51 20.41, 75.51 38.49, 76.75 66.66 M78.03 67.31 C58.45 66.86, 38.11 67.71, -1.79 65.69 M76.09 66.1 C47.06 66.93, 18.1 66.1, 0.14 65.12 M0.34 64.98 C2.15 45.19, 0.54 22.42, -1.22 1.4 M0.96 65.72 C0.98 46.91, -0.53 28.67, 0.35 -0.62" stroke="#087f5b" stroke-width="1" fill="none"></path></g><g stroke-linecap="round" transform="translate(239.93779483081585 251.5396003197577) rotate(0 38.32296580513605 32.93379873878871)"><path d="M-1.48 1.57 C27.23 -0.56, 54.36 1.22, 77.34 -1.8 M-0.24 0.07 C22.02 -0.18, 44.71 -0.82, 76.06 0.06 M77.45 -1.83 C76.81 14.55, 77.14 29.7, 78.04 65.8 M76.17 -0.59 C77.09 13.69, 75.64 28.67, 77.44 65.4 M78.08 67.11 C52.59 66.74, 28.48 64.61, -0.18 67.5 M76.87 65.54 C55.4 65.41, 32.51 65.58, -0.75 66.23 M-0.89 67.84 C2.03 48.32, 1.42 28.84, 1.4 -0.25 M-0.15 66.8 C-0.35 45.95, 0.36 27.53, -0.62 0.02" stroke="#087f5b" stroke-width="1" fill="none"></path></g><g stroke-linecap="round" transform="translate(316.5837264410875 250.9408039790526) rotate(0 38.32296580513594 32.93379873878871)"><path d="M1.57 -0.28 C26.68 -0.11, 55.79 1.26, 74.85 -0.07 M0.07 -0.71 C27.67 -0.57, 54.14 -0.41, 76.71 -0.84 M74.81 0.6 C76.64 16.32, 77.55 32.18, 76.58 64.21 M76.06 0.88 C76.34 14.88, 77.03 31.72, 76.18 66.12 M77.88 66.75 C52.9 68.15, 26.69 66.24, 1.63 65.63 M76.31 66.7 C51.23 66.04, 26.02 65.29, 0.37 65.59 M1.97 67.36 C0.25 52.29, -1.33 38.33, -0.25 -0.13 M0.94 65.86 C-1.2 43.33, -0.28 18.77, 0.02 -0.98" stroke="#087f5b" stroke-width="1" fill="none"></path></g><g stroke-linecap="round" transform="translate(10.598796340705348 320.99997584156677) rotate(0 38.32296580513599 32.93379873878871)"><path d="M0.69 1.28 C18.93 -1.42, 36.83 -1.98, 76.14 -1.35 M0.6 -0.37 C16.64 -1.4, 31.3 0.37, 75.89 0.98 M76.9 -1.26 C74.86 21.09, 77.48 41.1, 76.61 67.48 M76.21 0.47 C77.81 19.01, 77.25 38.99, 76.03 65.83 M75.63 67.6 C59.7 64.92, 47.91 65.13, 1.72 66.74 M76.03 65.26 C59.19 64.93, 42.35 65.31, -0.85 66.69 M0.3 66.57 C-1.75 48.76, -0.99 28.36, -1.06 0.12 M-0.34 66.71 C1.38 50.63, 1.32 36.48, 0.74 -0.59" stroke="#087f5b" stroke-width="1" fill="none"></path></g><g stroke-linecap="round" transform="translate(87.84352429168234 321.5987721822719) rotate(0 38.32296580513605 32.93379873878871)"><path d="M1.28 0.77 C27.49 0.24, 55.34 -0.77, 75.3 -1.91 M-0.37 0.97 C28.64 -0.49, 59.91 -1.22, 77.62 0.03 M75.38 -1.65 C77.27 19.33, 77.3 36.67, 78.26 65.8 M77.12 1 C75.53 21.88, 75.97 42.29, 76.61 64.87 M78.38 64.26 C51.31 67.41, 27.15 67.2, 0.87 64.47 M76.04 66.03 C46.88 66.36, 17.72 64.55, 0.82 65.62 M0.7 64.43 C1.4 42.31, -0.89 19.05, 0.12 -1.49 M0.85 66.83 C-0.34 51.2, 0.37 35.47, -0.59 -0.62" stroke="#087f5b" stroke-width="1" fill="none"></path></g><g stroke-linecap="round" transform="translate(164.48945590195444 320.4011795008614) rotate(0 38.32296580513594 32.93379873878871)"><path d="M0.77 -0.91 C28.63 -1.95, 55.74 -1.84, 74.73 1.7 M0.97 -0.86 C28.29 1.19, 55.88 1.27, 76.68 -0.21 M75 1.12 C77.7 15.89, 76.7 31.09, 76.58 66.38 M77.64 -0.53 C76.79 13.82, 75.75 27.78, 75.65 66.05 M75.04 64.9 C55.36 65.77, 31.91 67.4, -1.4 67.58 M76.81 65.64 C61.63 65.55, 43.85 66.22, -0.25 66.34 M-1.44 66.87 C-0.78 48.8, -1.16 34.41, -1.49 -1.27 M0.96 65.49 C1.13 46.78, 0.97 26.42, -0.62 -0.37" stroke="#087f5b" stroke-width="1" fill="none"></path></g><g stroke-linecap="round" transform="translate(240.53659117152097 320.4011795008614) rotate(0 38.32296580513605 32.93379873878871)"><path d="M-0.91 0.5 C24.17 -0.8, 49.92 -2.21, 78.34 1.39 M-0.86 -0.03 C28.52 -1.51, 56.22 -0.72, 76.43 -0.76 M77.77 0.98 C77.39 20.56, 77.84 41.13, 77.16 64.09 M76.11 0.43 C76.86 16.29, 76.92 32.8, 76.82 65.9 M75.68 67.8 C56.79 66.97, 39.34 63.85, 1.71 64.04 M76.41 66.83 C58.51 65.14, 40.9 65.74, 0.47 65.26 M1 65.19 C-1.51 44.05, -0.11 22.88, -1.27 -0.1 M-0.37 66.77 C-0.22 49.09, -1.15 30.19, -0.37 -0.69" stroke="#087f5b" stroke-width="1" fill="none"></path></g><g stroke-linecap="round" transform="translate(317.18252278179307 319.8023831601563) rotate(0 38.32296580513594 32.93379873878871)"><path d="M0.5 -1.46 C27.39 -1, 53.89 2.05, 78.04 1.21 M-0.03 0.9 C19.36 1.64, 40.28 0.45, 75.88 0.13 M77.62 1.16 C76.07 17.21, 76.04 31.71, 74.87 65 M77.08 -0.09 C76.69 22.82, 76.3 45.9, 76.68 65.36 M78.58 65.1 C48.75 66.37, 16 67.2, -1.83 64.64 M77.6 66.01 C57.48 66.51, 39.76 66.16, -0.6 66.02 M-0.68 64.58 C-0.59 43.91, -1.01 20.44, -0.1 -0.68 M0.9 66.21 C0.11 39.93, -1.26 14.82, -0.69 0.2" stroke="#087f5b" stroke-width="1" fill="none"></path></g><g stroke-linecap="round" transform="translate(453.10929212188466 44.65546460609414) rotate(0 28.742224353851952 28.442826183499335)"><path d="M35.34 1.19 C41.23 1.73, 47.53 5.09, 51.16 9.79 C54.78 14.48, 57.34 23.12, 57.1 29.34 C56.85 35.56, 53.84 42.64, 49.67 47.11 C45.49 51.57, 37.91 55.11, 32.05 56.12 C26.19 57.14, 19.75 56.4, 14.52 53.19 C9.28 49.99, 2.87 42.64, 0.63 36.9 C-1.62 31.17, -1.33 24.27, 1.02 18.77 C3.38 13.27, 7.61 6.38, 14.76 3.91 C21.9 1.44, 37.98 3.1, 43.9 3.93 C49.82 4.77, 50.79 8.5, 50.3 8.94 M28.64 -0.9 C34.43 -1.42, 41.73 1.47, 46.22 5.57 C50.7 9.67, 54.39 17.83, 55.56 23.71 C56.73 29.59, 56.1 35.55, 53.23 40.86 C50.37 46.18, 43.73 53.25, 38.38 55.58 C33.04 57.91, 26.8 56.78, 21.18 54.84 C15.56 52.9, 7.95 48.8, 4.64 43.94 C1.34 39.08, 0.62 31.88, 1.34 25.68 C2.07 19.48, 4.63 11.1, 8.99 6.76 C13.34 2.42, 24.45 0.52, 27.48 -0.35 C30.51 -1.21, 27.37 1.05, 27.18 1.55" stroke="#000000" stroke-width="1" fill="none"></path></g><g transform="translate(522.5696676436935 59.00852189359887) rotate(0 35 12.5)"><text x="0" y="18" font-family="Virgil, Segoe UI Emoji" font-size="20px" fill="#000000" text-anchor="start" style="white-space: pre;" direction="ltr">RoverA</text></g><g stroke-linecap="round" transform="translate(450.44429451996825 112.61884927613994) rotate(0 28.742224353851952 28.442826183499335)"><path d="M26.74 -0.31 C32.55 -1.12, 41.4 1.3, 46.38 5.06 C51.36 8.82, 55.2 16.29, 56.62 22.25 C58.03 28.2, 57.6 35.32, 54.88 40.79 C52.16 46.26, 45.9 52.45, 40.31 55.06 C34.72 57.67, 27.29 58.23, 21.36 56.46 C15.43 54.7, 8.1 49.73, 4.71 44.47 C1.31 39.22, 0.23 31.08, 0.99 24.93 C1.75 18.77, 4.58 11.74, 9.26 7.56 C13.93 3.37, 25.27 0.92, 29.04 -0.19 C32.8 -1.3, 31.82 0.35, 31.84 0.91 M30.22 -0.59 C36.03 -0.75, 44.01 2, 48.65 6.25 C53.28 10.5, 57.17 18.7, 58.04 24.9 C58.91 31.11, 57.14 38.53, 53.86 43.47 C50.58 48.41, 44.04 52.39, 38.34 54.54 C32.64 56.69, 25.63 58.2, 19.67 56.36 C13.72 54.52, 6.02 49.27, 2.62 43.51 C-0.78 37.76, -2.09 28.15, -0.75 21.83 C0.59 15.51, 5.65 9.01, 10.67 5.57 C15.69 2.14, 26.3 2.09, 29.38 1.24 C32.46 0.38, 29.06 0.37, 29.15 0.43" stroke="#e67700" stroke-width="1" fill="none"></path></g><g transform="translate(519.9046700417771 126.97190656364467) rotate(0 35.5 12.5)"><text x="0" y="18" font-family="Virgil, Segoe UI Emoji" font-size="20px" fill="#e67700" text-anchor="start" style="white-space: pre;" direction="ltr">RoverB</text></g><g transform="translate(21.97592681410481 402.71762145841217) rotate(0 17.5 12.5)"><text x="0" y="18" font-family="Virgil, Segoe UI Emoji" font-size="20px" fill="#495057" text-anchor="start" style="white-space: pre;" direction="ltr">0,0</text></g><g transform="translate(350.58021174173905 10) rotate(0 16.5 12.5)"><text x="0" y="18" font-family="Virgil, Segoe UI Emoji" font-size="20px" fill="#495057" text-anchor="start" style="white-space: pre;" direction="ltr">4,4</text></g><g transform="translate(25.835002398083475 13.592778044231494) rotate(0 17 12.5)"><text x="0" y="18" font-family="Virgil, Segoe UI Emoji" font-size="20px" fill="#495057" text-anchor="start" style="white-space: pre;" direction="ltr">0,4</text></g><g transform="translate(339.703081268339 398.61882511770693) rotate(0 17 12.5)"><text x="0" y="18" font-family="Virgil, Segoe UI Emoji" font-size="20px" fill="#495057" text-anchor="start" style="white-space: pre;" direction="ltr">4,0</text></g><g stroke-linecap="round" transform="translate(26.766297539747598 195.25274429346456) rotate(0 21.556668265388907 20.658473754331112)"><path d="M15.82 1.01 C19.72 -0.68, 25.01 0.07, 29.11 1.68 C33.21 3.3, 38.31 6.94, 40.4 10.69 C42.5 14.44, 42.63 19.86, 41.7 24.16 C40.76 28.46, 38.12 33.61, 34.79 36.47 C31.46 39.33, 26.35 41.34, 21.72 41.31 C17.1 41.29, 10.54 39.2, 7.07 36.31 C3.59 33.43, 1.43 28.28, 0.85 23.99 C0.27 19.71, 0.61 14.51, 3.59 10.61 C6.56 6.71, 15.54 2.24, 18.72 0.59 C21.9 -1.06, 22.57 0.45, 22.67 0.7 M31.14 1.82 C35.68 3.56, 40.01 7.94, 42.1 11.92 C44.2 15.9, 45.02 21.61, 43.72 25.69 C42.42 29.77, 38.21 33.88, 34.32 36.39 C30.43 38.91, 25.15 40.91, 20.4 40.78 C15.65 40.66, 9.11 38.83, 5.84 35.66 C2.57 32.5, 1.14 26.29, 0.79 21.79 C0.44 17.29, 1.36 12.34, 3.74 8.66 C6.12 4.98, 10.89 0.94, 15.05 -0.27 C19.21 -1.49, 26.21 0.87, 28.7 1.39 C31.19 1.9, 30.12 2.4, 29.99 2.83" stroke="#000000" stroke-width="1" fill="none"></path></g><g stroke-linecap="round" transform="translate(332.1524312994245 263.5155271338629) rotate(0 20.059677413625877 20.359075583978466)"><path d="M26.18 1.15 C29.96 2.19, 34.45 6.15, 36.66 9.83 C38.87 13.52, 40 18.87, 39.45 23.28 C38.9 27.68, 36.61 33.5, 33.36 36.25 C30.11 39, 24.17 39.84, 19.96 39.76 C15.76 39.67, 11.25 38.33, 8.13 35.74 C5.02 33.14, 2.22 28.44, 1.27 24.2 C0.33 19.97, 0.54 14.05, 2.48 10.32 C4.42 6.59, 8.57 3.05, 12.91 1.8 C17.24 0.55, 25.6 2.56, 28.48 2.79 C31.35 3.03, 30.16 3.2, 30.16 3.21 M27.71 0.92 C31.27 2.22, 35.18 6.06, 37.27 10.01 C39.37 13.96, 40.94 20.06, 40.3 24.63 C39.66 29.21, 36.81 34.94, 33.43 37.45 C30.05 39.97, 24.69 40, 20.03 39.73 C15.38 39.47, 8.78 38.61, 5.52 35.86 C2.27 33.11, 0.92 27.71, 0.5 23.25 C0.08 18.79, 0.56 12.69, 2.99 9.1 C5.42 5.52, 10.81 2.99, 15.09 1.72 C19.36 0.45, 26.74 1.46, 28.66 1.5 C30.59 1.55, 26.86 1.83, 26.63 1.97" stroke="#e67700" stroke-width="1" fill="none"></path></g><g stroke-linecap="round"><g transform="translate(47.72416946443116 159.62436202150212) rotate(0 0.05846142768859863 -12.683749028112999)"><path d="M-1.06 -0.42 C-0.91 -4.54, 0.87 -21, 1.18 -24.94 M0.59 -1.69 C0.65 -5.61, 0.88 -19.53, 0.84 -23.61" stroke="#000000" stroke-width="1" fill="none"></path></g><g transform="translate(47.72416946443116 159.62436202150212) rotate(0 0.05846142768859863 -12.683749028112999)"><path d="M4.55 -10.85 C3.27 -15.07, 2.79 -20.52, 0.71 -23.19 M5.1 -12.64 C3.7 -15.69, 2.56 -18.83, 0.91 -23.35" stroke="#000000" stroke-width="1" fill="none"></path></g><g transform="translate(47.72416946443116 159.62436202150212) rotate(0 0.05846142768859863 -12.683749028112999)"><path d="M-3.84 -10.89 C-2.41 -15.02, -0.17 -20.46, 0.71 -23.19 M-3.3 -12.68 C-2.2 -15.73, -0.84 -18.84, 0.91 -23.35" stroke="#000000" stroke-width="1" fill="none"></path></g></g><g stroke-linecap="round"><g transform="translate(111.79537791989287 144.6544535038709) rotate(0 11.355523398746016 -1.5894572538169598)"><path d="M-0.19 -0.05 C3.47 -0.66, 18.38 -2.83, 22.09 -3.13 M-1.75 -1.12 C2.3 -1.58, 20.66 -1.26, 24.46 -1.66" stroke="#000000" stroke-width="1" fill="none"></path></g><g transform="translate(111.79537791989287 144.6544535038709) rotate(0 11.355523398746016 -1.5894572538169598)"><path d="M13.75 1.97 C16.96 0.69, 21.53 0.94, 24.05 -0.68 M13.73 2.13 C16.53 1.69, 20.21 -0.04, 24.64 -1.31" stroke="#000000" stroke-width="1" fill="none"></path></g><g transform="translate(111.79537791989287 144.6544535038709) rotate(0 11.355523398746016 -1.5894572538169598)"><path d="M13.51 -5.88 C16.83 -4.72, 21.47 -2.04, 24.05 -0.68 M13.49 -5.72 C16.29 -3.9, 20.04 -3.39, 24.64 -1.31" stroke="#000000" stroke-width="1" fill="none"></path></g></g><g stroke-linecap="round"><g transform="translate(187.24371684875427 151.8400095923339) rotate(0 14.245410135266752 -1.6514603552843994)"><path d="M-0.86 -0.15 C3.7 -0.51, 22.24 -2.87, 27.15 -3.15 M0.9 -1.27 C5.83 -1.41, 24.81 -1.58, 29.35 -2.01" stroke="#000000" stroke-width="1" fill="none"></path></g><g transform="translate(187.24371684875427 151.8400095923339) rotate(0 14.245410135266752 -1.6514603552843994)"><path d="M16.13 2.25 C19.19 2.54, 24.47 -0.29, 29.79 -1.14 M15.95 3.35 C20.66 1.48, 25.91 -0.08, 29.81 -1.46" stroke="#000000" stroke-width="1" fill="none"></path></g><g transform="translate(187.24371684875427 151.8400095923339) rotate(0 14.245410135266752 -1.6514603552843994)"><path d="M15.69 -7.4 C18.8 -4.35, 24.2 -4.41, 29.79 -1.14 M15.51 -6.3 C20.33 -4.8, 25.73 -2.98, 29.81 -1.46" stroke="#000000" stroke-width="1" fill="none"></path></g></g><g stroke-linecap="round"><g transform="translate(207.0039960920276 203.93529123369058) rotate(0 -0.41090736961780294 15.79437704537176)"><path d="M-0.45 0.56 C-0.97 5.46, -2.23 25.46, -2.34 30.34 M1.51 -0.18 C1.28 4.82, 0.34 26.61, -0.22 31.77" stroke="#000000" stroke-width="1" fill="none"></path></g><g transform="translate(207.0039960920276 203.93529123369058) rotate(0 -0.41090736961780294 15.79437704537176)"><path d="M-3.71 15.63 C-3.03 22.58, -2.12 26.99, 0.05 31.11 M-4.66 17.26 C-2.9 20.81, -2.32 23.95, 0.21 31.77" stroke="#000000" stroke-width="1" fill="none"></path></g><g transform="translate(207.0039960920276 203.93529123369058) rotate(0 -0.41090736961780294 15.79437704537176)"><path d="M6.71 16.36 C3.58 23, 0.69 27.15, 0.05 31.11 M5.76 17.99 C5.04 21.44, 3.15 24.4, 0.21 31.77" stroke="#000000" stroke-width="1" fill="none"></path></g></g><g stroke-linecap="round"><g transform="translate(205.20760706991177 268.0064996891523) rotate(0 0.7675610521580438 15.38771561441743)"><path d="M1.14 0.59 C1.44 5.55, 1.08 24.95, 0.9 29.99 M0.28 -0.15 C0.58 4.9, 0.58 25.57, 0.42 30.92" stroke="#000000" stroke-width="1" fill="none"></path></g><g transform="translate(205.20760706991177 268.0064996891523) rotate(0 0.7675610521580438 15.38771561441743)"><path d="M-3.97 17.4 C-5.04 19.57, -2.82 23.84, 0.51 32.19 M-4.65 16.54 C-3.86 20.13, -1.71 21.82, 0.56 30.88" stroke="#000000" stroke-width="1" fill="none"></path></g><g transform="translate(205.20760706991177 268.0064996891523) rotate(0 0.7675610521580438 15.38771561441743)"><path d="M6.68 17.52 C3.22 19.77, 3.06 24.01, 0.51 32.19 M6 16.66 C4.48 20.2, 4.34 21.87, 0.56 30.88" stroke="#000000" stroke-width="1" fill="none"></path></g></g><g stroke-linecap="round"><g transform="translate(305.2065959676884 276.3896484590258) rotate(0 -16.871230156967727 0.17747269293332124)"><path d="M0.95 -0.49 C-4.6 -0.18, -27.86 1.83, -33.88 2.14 M0 -1.79 C-5.64 -1.84, -29.23 -0.25, -34.7 0.52" stroke="#e67700" stroke-width="1" fill="none"></path></g><g transform="translate(305.2065959676884 276.3896484590258) rotate(0 -16.871230156967727 0.17747269293332124)"><path d="M-19.97 -6.47 C-21.8 -6.31, -26.76 -1.95, -34.06 -0.75 M-18.65 -6.39 C-23.89 -3.94, -30.82 -1.61, -34.63 1.05" stroke="#e67700" stroke-width="1" fill="none"></path></g><g transform="translate(305.2065959676884 276.3896484590258) rotate(0 -16.871230156967727 0.17747269293332124)"><path d="M-18.86 5.16 C-21 2.4, -26.24 3.83, -34.06 -0.75 M-17.54 5.24 C-23.09 3.63, -30.4 1.9, -34.63 1.05" stroke="#e67700" stroke-width="1" fill="none"></path></g></g><g stroke-linecap="round"><g transform="translate(219.57871924683786 308.125854516404) rotate(0 -19.300211370422744 -0.2967271626140473)"><path d="M0.46 -1.01 C-6 -1.49, -31.85 -1.59, -38.19 -1.7 M-0.75 1.07 C-7.42 1.32, -32.86 0.11, -39.06 -0.11" stroke="#e67700" stroke-width="1" fill="none"></path></g><g transform="translate(219.57871924683786 308.125854516404) rotate(0 -19.300211370422744 -0.2967271626140473)"><path d="M-22.4 -5.71 C-26.98 -2.62, -33.32 -3.28, -40.41 -0.96 M-20.69 -5.85 C-25.35 -4.41, -29.79 -3.24, -38.55 -0.65" stroke="#e67700" stroke-width="1" fill="none"></path></g><g transform="translate(219.57871924683786 308.125854516404) rotate(0 -19.300211370422744 -0.2967271626140473)"><path d="M-22.94 7.4 C-27.46 5.89, -33.6 0.62, -40.41 -0.96 M-21.23 7.26 C-25.73 5.78, -30.05 4.02, -38.55 -0.65" stroke="#e67700" stroke-width="1" fill="none"></path></g></g><g stroke-linecap="round"><g transform="translate(142.93278763656576 288.964371613836) rotate(0 -19.455064262582994 0.3250121036768405)"><path d="M0.77 -0.1 C-5.56 0.13, -32.09 1.47, -38.59 1.86 M-0.28 -1.19 C-6.75 -1.35, -33.23 -0.18, -39.68 0.08" stroke="#e67700" stroke-width="1" fill="none"></path></g><g transform="translate(142.93278763656576 288.964371613836) rotate(0 -19.455064262582994 0.3250121036768405)"><path d="M-22.11 -7.65 C-25.37 -5.14, -29.3 -2.9, -40.19 1.55 M-21.61 -6.41 C-27.89 -3.67, -34.05 -2.19, -40.5 0.66" stroke="#e67700" stroke-width="1" fill="none"></path></g><g transform="translate(142.93278763656576 288.964371613836) rotate(0 -19.455064262582994 0.3250121036768405)"><path d="M-21.57 5.45 C-25.01 4.64, -29.08 3.56, -40.19 1.55 M-21.06 6.69 C-27.48 4.82, -33.83 1.69, -40.5 0.66" stroke="#e67700" stroke-width="1" fill="none"></path></g></g><g stroke-linecap="round"><g transform="translate(128.5616754596398 227.28834852119536) rotate(0 0.8801344102280382 -13.907369423180569)"><path d="M0.51 0.93 C0.44 -3.67, 0.22 -24.15, 0.23 -28.74 M-0.68 0.37 C-0.45 -4.02, 2.4 -23.02, 2.44 -27.83" stroke="#e67700" stroke-width="1" fill="none"></path></g><g transform="translate(128.5616754596398 227.28834852119536) rotate(0 0.8801344102280382 -13.907369423180569)"><path d="M7.07 -15.62 C3.49 -19.91, 4.64 -24.48, 1.7 -28.57 M5.92 -15.09 C4.78 -20.15, 3.36 -25.39, 2.29 -27.3" stroke="#e67700" stroke-width="1" fill="none"></path></g><g transform="translate(128.5616754596398 227.28834852119536) rotate(0 0.8801344102280382 -13.907369423180569)"><path d="M-2.32 -16.45 C-2.56 -20.48, 1.93 -24.76, 1.7 -28.57 M-3.48 -15.91 C-0.93 -20.58, 1.34 -25.5, 2.29 -27.3" stroke="#e67700" stroke-width="1" fill="none"></path></g></g><g stroke-linecap="round"><g transform="translate(148.321954702913 167.4087144506704) rotate(0 -0.3025447368621599 -14.208707080990479)"><path d="M-1.17 0.51 C-0.91 -4.23, 0.33 -23.95, 0.57 -28.93 M0.41 -0.27 C0.65 -4.83, 0.05 -23.07, -0.08 -27.8" stroke="#e67700" stroke-width="1" fill="none"></path></g><g transform="translate(148.321954702913 167.4087144506704) rotate(0 -0.3025447368621599 -14.208707080990479)"><path d="M5.71 -14.06 C3.11 -17.35, 1.49 -21.51, -0.57 -29.04 M5.58 -14.32 C3.4 -17.4, 2.72 -19.96, -0.14 -27.88" stroke="#e67700" stroke-width="1" fill="none"></path></g><g transform="translate(148.321954702913 167.4087144506704) rotate(0 -0.3025447368621599 -14.208707080990479)"><path d="M-3.91 -13.78 C-4.4 -17.03, -3.92 -21.26, -0.57 -29.04 M-4.04 -14.03 C-4.11 -17.1, -2.68 -19.72, -0.14 -27.88" stroke="#e67700" stroke-width="1" fill="none"></path></g></g><g stroke-linecap="round"><g transform="translate(139.34000959233435 94.9543572253352) rotate(0 0.1315882785655731 -16.717100825594983)"><path d="M-0.82 0.03 C-0.83 -5.33, 1.03 -26.16, 1.09 -31.68 M0.94 -1 C0.78 -6.75, 1.11 -28.26, 0.71 -33.47" stroke="#e67700" stroke-width="1" fill="none"></path></g><g transform="translate(139.34000959233435 94.9543572253352) rotate(0 0.1315882785655731 -16.717100825594983)"><path d="M6.64 -16.94 C5.11 -24.96, 0.84 -30.63, -0.25 -33.46 M6.09 -18.55 C5.05 -22.33, 4.36 -25.49, 1.21 -33.28" stroke="#e67700" stroke-width="1" fill="none"></path></g><g transform="translate(139.34000959233435 94.9543572253352) rotate(0 0.1315882785655731 -16.717100825594983)"><path d="M-4.41 -16.68 C-1.62 -24.72, -1.55 -30.49, -0.25 -33.46 M-4.97 -18.29 C-3.36 -22.08, -1.39 -25.31, 1.21 -33.28" stroke="#e67700" stroke-width="1" fill="none"></path></g></g><g stroke-linecap="round"><g transform="translate(193.83047659651197 79.98444870770396) rotate(0 14.237594884900432 -0.03672355013590334)"><path d="M0.77 0.15 C5.44 -0.02, 24.02 -0.44, 28.75 -0.72 M-0.28 -0.82 C4.17 -0.82, 22.99 0.74, 27.81 0.75" stroke="#e67700" stroke-width="1" fill="none"></path></g><g transform="translate(193.83047659651197 79.98444870770396) rotate(0 14.237594884900432 -0.03672355013590334)"><path d="M14.27 5.04 C18.89 3.94, 22.82 1.57, 26.73 1.77 M14.49 4.38 C19.71 2.77, 25.6 0.88, 28.28 0.29" stroke="#e67700" stroke-width="1" fill="none"></path></g><g transform="translate(193.83047659651197 79.98444870770396) rotate(0 14.237594884900432 -0.03672355013590334)"><path d="M14.72 -4.78 C19.2 -2.33, 22.97 -1.16, 26.73 1.77 M14.95 -5.44 C19.98 -3.14, 25.68 -1.12, 28.28 0.29" stroke="#e67700" stroke-width="1" fill="none"></path></g></g><g stroke-linecap="round"><g transform="translate(263.88964845902615 81.18204138911446) rotate(0 15.281730657096773 -0.13108135224469208)"><path d="M1.06 0.67 C5.57 0.83, 23.67 0.71, 28.26 0.86 M0.16 -0.03 C4.93 -0.24, 25.25 -1.09, 30.41 -1.12" stroke="#e67700" stroke-width="1" fill="none"></path></g><g transform="translate(263.88964845902615 81.18204138911446) rotate(0 15.281730657096773 -0.13108135224469208)"><path d="M17.58 2.95 C22.51 1.11, 28.82 -1.4, 31.36 -2.06 M16.32 4.42 C20.89 2.19, 26.06 0.1, 30.94 -1.33" stroke="#e67700" stroke-width="1" fill="none"></path></g><g transform="translate(263.88964845902615 81.18204138911446) rotate(0 15.281730657096773 -0.13108135224469208)"><path d="M17.3 -7.09 C22.34 -4.94, 28.76 -3.45, 31.36 -2.06 M16.05 -5.62 C20.78 -4.43, 26.05 -3.11, 30.94 -1.33" stroke="#e67700" stroke-width="1" fill="none"></path></g></g></svg>